<?xml version="1.0" encoding="UTF-8"?>
<!DOCTYPE svg PUBLIC "-//W3C//DTD SVG 1.1//EN" "http://www.w3.org/Graphics/SVG/1.1/DTD/svg11.dtd">
<svg xmlns="http://www.w3.org/2000/svg" version="1.1" width="512px" height="512px" style="shape-rendering:geometricPrecision; text-rendering:geometricPrecision; image-rendering:optimizeQuality; fill-rule:evenodd; clip-rule:evenodd" xmlns:xlink="http://www.w3.org/1999/xlink">
<g><path style="opacity:0.987" fill="#f34336" d="M 446.5,85.5 C 437.307,114.847 417.307,128.681 386.5,127C 378.404,126.025 371.07,123.192 364.5,118.5C 358.845,114.511 353.845,109.844 349.5,104.5C 348.921,101.669 347.588,99.3356 345.5,97.5C 334.856,69.9339 341.19,47.1005 364.5,29C 394.388,13.7085 419.555,19.2085 440,45.5C 447.253,58.0332 449.419,71.3665 446.5,85.5 Z"/></g>
<g><path style="opacity:0.988" fill="#ffa000" d="M 255.5,107.5 C 203.102,114.949 150.436,121.449 97.5,127C 92.4982,127.247 88.6648,129.414 86,133.5C 85.3333,139.167 85.3333,144.833 86,150.5C 95.9335,253.47 105.433,356.47 114.5,459.5C 79.4645,456.07 44.4645,452.237 9.5,448C 4.9448,447.565 1.61147,445.398 -0.5,441.5C -0.5,436.833 -0.5,432.167 -0.5,427.5C 13.6436,318.353 27.4769,209.019 41,99.5C 40.5106,90.0753 44.8439,85.0753 54,84.5C 121.152,92.3733 188.319,100.04 255.5,107.5 Z"/></g>
<g><path style="opacity:0.997" fill="#fedf81" d="M 511.5,428.5 C 511.5,432.833 511.5,437.167 511.5,441.5C 509.525,444.961 506.525,447.127 502.5,448C 467.076,451.843 431.743,456.01 396.5,460.5C 395.551,459.848 394.385,459.514 393,459.5C 346.933,464.553 301.1,470.22 255.5,476.5C 215.146,480.743 174.812,485.243 134.5,490C 126.262,492.6 120.429,490.1 117,482.5C 115.836,474.865 115.003,467.198 114.5,459.5C 105.433,356.47 95.9335,253.47 86,150.5C 85.3333,144.833 85.3333,139.167 86,133.5C 88.6648,129.414 92.4982,127.247 97.5,127C 150.436,121.449 203.102,114.949 255.5,107.5C 285.536,104.496 315.536,101.162 345.5,97.5C 347.588,99.3356 348.921,101.669 349.5,104.5C 332.868,120.632 316.368,136.965 300,153.5C 297.583,158.922 298.417,163.755 302.5,168C 307.397,170.232 312.063,169.899 316.5,167C 332.702,150.965 348.702,134.799 364.5,118.5C 371.07,123.192 378.404,126.025 386.5,127C 417.307,128.681 437.307,114.847 446.5,85.5C 451.813,84.6381 457.146,84.4715 462.5,85C 465.756,86.587 467.923,89.087 469,92.5C 483.02,204.665 497.187,316.665 511.5,428.5 Z"/></g>
<g><path style="opacity:1" fill="#465a64" d="M 349.5,104.5 C 353.845,109.844 358.845,114.511 364.5,118.5C 348.702,134.799 332.702,150.965 316.5,167C 312.063,169.899 307.397,170.232 302.5,168C 298.417,163.755 297.583,158.922 300,153.5C 316.368,136.965 332.868,120.632 349.5,104.5 Z"/></g>
<g><path style="opacity:0.96" fill="#ffa002" d="M 396.5,460.5 C 395.997,468.198 395.164,475.865 394,483.5C 389.983,490.138 384.15,492.304 376.5,490C 336.188,485.243 295.854,480.743 255.5,476.5C 301.1,470.22 346.933,464.553 393,459.5C 394.385,459.514 395.551,459.848 396.5,460.5 Z"/></g>
</svg>
